<?xml version="1.0" encoding="UTF-8"?>
<svg xmlns="http://www.w3.org/2000/svg" xmlns:xlink="http://www.w3.org/1999/xlink" width="16px" height="16px" viewBox="0 0 16 16" version="1.1">
<g id="surface1">
<path style=" stroke:none;fill-rule:nonzero;fill:rgb(0%,47.058824%,84.313725%);fill-opacity:1;" d="M 0 8 L 0 16 L 16 16 L 16 0 L 0 0 Z M 11.09375 2.636719 L 14.375 4.28125 L 12.40625 6.25 L 13.71875 6.257812 L 15.03125 6.257812 L 11.59375 7.992188 L 10.675781 7.992188 L 9.75 8 L 9.75 7.53125 L 11 6.90625 C 11.6875 6.5625 12.25 6.269531 12.25 6.25 C 12.25 6.230469 10.800781 5.492188 9.03125 4.605469 L 5.8125 3 L 4.34375 3.730469 C 3.539062 4.136719 2.875 4.480469 2.875 4.5 C 2.875 4.519531 4.226562 5.207031 5.875 6.03125 L 8.875 7.53125 L 8.875 11.261719 C 8.875 13.320312 8.863281 15 8.84375 15 C 8.824219 15 7.523438 14.355469 5.945312 13.570312 C 3.832031 12.507812 3.039062 12.082031 2.917969 11.9375 L 2.75 11.738281 L 2.75 4.53125 L 1.863281 3.644531 C 1.375 3.15625 0.988281 2.742188 1 2.726562 C 1.019531 2.710938 1.71875 2.355469 2.554688 1.9375 L 4.082031 1.175781 L 5.8125 2.90625 L 6.769531 1.949219 C 7.289062 1.429688 7.738281 1 7.761719 1 C 7.792969 1 9.289062 1.738281 11.09375 2.636719 Z M 10.65625 8.855469 L 11.5 9.273438 L 11.90625 9.074219 C 12.132812 8.96875 12.332031 8.875 12.34375 8.875 C 12.363281 8.875 12.375 9.914062 12.375 11.179688 L 12.375 13.488281 L 12.210938 13.6875 C 12.101562 13.820312 11.667969 14.070312 10.929688 14.445312 C 10.320312 14.75 9.800781 15 9.78125 15 C 9.761719 15 9.75 13.523438 9.75 11.71875 C 9.75 9.914062 9.761719 8.4375 9.78125 8.4375 C 9.800781 8.4375 10.195312 8.625 10.65625 8.855469 Z M 10.65625 8.855469 "/>
</g>
</svg>
